<?xml version="1.0" encoding="utf-8"?>
<!-- Generator: Adobe Illustrator 27.5.0, SVG Export Plug-In . SVG Version: 6.00 Build 0)  -->
<svg version="1.1" xmlns="http://www.w3.org/2000/svg" xmlns:xlink="http://www.w3.org/1999/xlink" x="0px" y="0px"
	 viewBox="0 0 500 500" style="enable-background:new 0 0 500 500;" xml:space="preserve">
<g id="BACKGROUND">
	<rect style="fill:#FFFFFF;" width="500" height="500"/>
</g>
<g id="OBJECTS">
	<g>
		<g>
			<g>
				<path style="fill:#E4EBF7;" d="M416.508,246.919c-0.118,1.843-0.272,3.686-0.461,5.505c-0.083,0.921-0.189,1.831-0.295,2.753
					v0.012c-1.772,15.168-5.729,29.474-12.109,41.973v0.012c-0.532,1.051-1.087,2.079-1.666,3.095
					c-4.548,8.175-10.195,15.487-17.023,21.654c-0.614,0.555-1.228,1.099-1.855,1.618c-5.989,5.08-12.841,9.309-20.591,12.499
					c-0.91,0.378-1.819,0.744-2.753,1.087c0,0,0,0-0.012,0c-17.826,6.616-40.201,7.95-67.631,2.02c-0.024,0-0.047-0.012-0.071-0.012
					c-0.945-0.201-1.89-0.39-2.823-0.543c-25.434-4.536-44.347,5.6-64.43,15.901c-0.732,0.366-1.453,0.744-2.185,1.11
					c-24.206,12.345-50.514,24.17-92.227,10.455c-64.371-21.181-51.388-93.467-27.324-145.009c0.378-0.827,0.768-1.642,1.158-2.457
					c5.151-10.738,10.75-20.508,16.172-28.612c4.335-6.497,7.797-13.302,10.656-20.236c0.378-0.91,0.744-1.819,1.099-2.741
					c14.329-36.775,13.089-76.503,38.582-92.026c0.65-0.413,1.323-0.803,2.008-1.158c3.603-1.926,7.702-3.39,12.404-4.347
					c12.534-2.552,23.19-0.272,32.475,4.973c0.862,0.496,1.713,1.004,2.54,1.548c19.527,12.522,32.912,38.169,45.41,58.511
					c0.449,0.756,0.91,1.488,1.359,2.221c9.947,15.936,19.433,28.045,31.152,26.899c2.375-0.236,4.773-0.402,7.182-0.508
					c0.839-0.035,1.666-0.059,2.504-0.083c20.851-0.52,42.811,3.603,61.512,12.298c0.78,0.354,1.547,0.721,2.304,1.099
					c17.07,8.411,31.175,20.744,38.842,36.964c0.343,0.709,0.662,1.429,0.98,2.15C415.362,224.793,417.264,235.26,416.508,246.919z"
					/>
				<path style="fill:#E4EBF7;" d="M357.075,139.229c-2.516,1.229-5.009,2.221-7.49,3.001c-0.874,0.272-1.736,0.52-2.599,0.732
					c-43.213,11.022-78.901-42.942-81.89-68.47c-3.024-25.847,30.348-18.074,62.374-2.965c1.004,0.473,1.996,0.945,2.989,1.429
					c1.028,0.508,2.067,1.016,3.095,1.536C368.014,91.822,404.694,116.004,357.075,139.229z"/>
				<path style="opacity:0.62;fill:#FFFFFF;" d="M292.113,339.146c-0.024,0-0.047-0.012-0.071-0.012
					c-0.945-0.201-1.89-0.39-2.823-0.543c-6.592-15.901-16.172-31.92-29.238-37.72c-8.907-3.957-18.677-2.729-29.037,3.674
					c-30.372,18.771-53.845,29.344-69.651,19.894c-15.097-9.025-21.028-36.444-18.157-83.827
					c1.819-30.041-2.245-53.786-12.097-70.868c0.378-0.91,0.744-1.819,1.099-2.741c10.786,17.614,15.263,42.327,13.349,73.751
					c-2.812,46.415,2.752,73.125,17.023,81.654c15.641,9.368,41.548-4.016,67.194-19.87c11.057-6.84,21.571-8.128,31.234-3.828
					C275.208,305.053,285.344,322.383,292.113,339.146z"/>
				<path style="opacity:0.62;fill:#FFFFFF;" d="M224.789,354.492c-0.732,0.366-1.453,0.744-2.185,1.11
					c-1.536-5.198-4.099-10.219-8.305-13.55c-6.084-4.82-14.731-5.422-25.706-1.796c-24.3,8.045-42.835,7.289-55.121-2.233
					c-13.739-10.644-19.598-32.369-17.413-64.548c1.595-23.509-4.678-40.461-13.007-52.428c0.378-0.827,0.768-1.642,1.158-2.457
					c8.978,12.38,15.901,30.148,14.211,55.05c-2.138,31.341,3.426,52.38,16.503,62.516c11.613,9.014,29.427,9.64,52.924,1.855
					c11.79-3.898,21.181-3.154,27.927,2.197C220.324,343.824,223.112,349.069,224.789,354.492z"/>
				<path style="opacity:0.62;fill:#FFFFFF;" d="M334.724,253.582c-3.993,30.219,0.555,53.727,13.526,69.888
					c4.442,5.54,9.439,9.592,14.259,12.569c-0.91,0.378-1.819,0.744-2.753,1.087c0,0,0,0-0.012,0
					c-4.513-2.989-9.12-6.934-13.302-12.144c-13.42-16.68-18.145-40.803-14.058-71.707c5.304-40.13,21.996-64.135,36.881-77.944
					c0.78,0.354,1.547,0.721,2.304,1.099C356.839,189.826,340.028,213.488,334.724,253.582z"/>
				<path style="opacity:0.62;fill:#FFFFFF;" d="M369.018,263.848c-3.414,22.941-0.567,40.224,8.494,51.341
					c2.363,2.894,4.938,5.091,7.442,6.734c-0.614,0.555-1.228,1.099-1.855,1.618c-2.504-1.725-5.056-3.957-7.419-6.863
					c-9.498-11.66-12.522-29.545-9.002-53.184c3.591-24.017,18.653-41.229,43.733-50.1c0.343,0.709,0.662,1.429,0.98,2.15
					C386.762,224.12,372.515,240.351,369.018,263.848z"/>
				<path style="opacity:0.62;fill:#FFFFFF;" d="M416.047,252.424c-0.083,0.921-0.189,1.831-0.295,2.753v0.012
					c-4.985,2.469-8.695,6.025-11.081,10.62c-4.855,9.356-3.532,21.571-1.028,31.353c-0.012,0.012-0.012,0.012,0,0.012
					c-0.532,1.051-1.087,2.079-1.666,3.095c-3.024-10.502-5.08-24.607,0.591-35.546C405.415,259.241,409.928,255.13,416.047,252.424
					z"/>
				<path style="opacity:0.62;fill:#FFFFFF;" d="M307.754,163.033c-1.264,5.623-3.083,11.979-5.682,18.275
					c-9.581,23.225-25.446,35.428-45.978,35.428c-0.815,0-1.618-0.012-2.445-0.047c-27.95-1.288-44.016-44.855-59.551-86.993
					c-7.62-20.65-15.003-40.661-23.379-54.719c0.65-0.413,1.323-0.803,2.008-1.158c8.553,14.306,15.948,34.377,23.579,55.062
					c15.275,41.418,31.069,84.241,57.46,85.446c33.443,1.536,46.497-29.97,51.482-51.211
					C306.089,163.08,306.915,163.056,307.754,163.033z"/>
				<path style="opacity:0.62;fill:#FFFFFF;" d="M266.915,136.725c-2.02,0.366-4.253,0.602-6.615,0.602
					c-4.938,0-10.478-1.04-15.96-4.17c-14.436-8.246-23.402-27.962-26.734-58.712c0.862,0.496,1.713,1.004,2.54,1.548
					c3.378,28.907,11.884,47.407,25.363,55.109c7.053,4.028,14.342,4.277,20.047,3.402
					C266.006,135.26,266.467,135.992,266.915,136.725z"/>
				<path style="opacity:0.62;fill:#FFFFFF;" d="M349.585,142.23c-0.874,0.272-1.736,0.52-2.599,0.732
					c-6.237-6.521-12.995-19.634-14.613-46.037c-0.614-10.065-2.422-18.441-4.902-25.399c1.004,0.473,1.996,0.945,2.989,1.429
					c2.174,6.734,3.709,14.613,4.277,23.827C336.39,123.872,343.454,136.417,349.585,142.23z"/>
			</g>
			<ellipse style="fill:#E4EBF7;" cx="247.888" cy="448.325" rx="96.139" ry="9.675"/>
		</g>
		<g>
			<g>
				<g>
					<linearGradient id="SVGID_1_" gradientUnits="userSpaceOnUse" x1="171.0662" y1="239.0442" x2="173.8226" y2="212.6611">
						<stop  offset="0" style="stop-color:#3855E1"/>
						<stop  offset="1" style="stop-color:#5C7EF7"/>
					</linearGradient>
					<path style="fill:url(#SVGID_1_);" d="M133.03,218.402c0,0,1.678,1.146,4.69,2.894c9.864,5.741,34.034,17.992,60.508,17.838
						c0.839,0,1.678-0.024,2.516-0.059c0.945-0.036,1.89-0.083,2.835-0.154c2.54-0.189,5.08-0.496,7.643-0.933l3.319-25.469
						l-8.789,0.425l-2.41,0.118l-1.429,0.071l-23.296,1.146l-35.192-11.199l-5.033-1.607
						C138.394,201.473,132.097,205.88,133.03,218.402z"/>
					<path style="fill:#FAFCFF;stroke:#0C6BF4;stroke-width:1.1813;stroke-miterlimit:10;" d="M133.03,218.402
						c0,0,1.678,1.146,4.69,2.894c0.354-6.911,3.32-13.739,5.706-18.216l-5.033-1.607
						C138.394,201.473,132.097,205.88,133.03,218.402z"/>
					<path style="opacity:0.47;fill:#3150BC;" d="M200.744,239.075c0.945-0.036,1.89-0.083,2.835-0.154
						c2.54-0.189,5.08-0.496,7.643-0.933l3.319-25.469l-8.789,0.425l-2.41,0.118c-0.65,2.54-1.217,5.269-1.666,8.234
						C200.709,227.616,200.473,233.57,200.744,239.075z"/>
					<g>
						
							<rect x="128.369" y="194.8" transform="matrix(0.9874 -0.1581 0.1581 0.9874 -32.3437 25.5279)" style="fill:#BAC1CC;" width="31.886" height="42.593"/>
						<rect x="128.369" y="194.8" style="fill:#EDF1F9;" width="31.886" height="42.593"/>
						<g>
							<path style="fill:#F4D242;" d="M138.894,203.792c0,1.753-1.421,3.175-3.175,3.175c-1.753,0-3.175-1.421-3.175-3.175
								c0-1.753,1.421-3.175,3.175-3.175C137.473,200.617,138.894,202.038,138.894,203.792z"/>
							<path style="fill:#BAC1CC;" d="M151.348,213.858H133.48c-0.516,0-0.935-0.419-0.935-0.935l0,0
								c0-0.516,0.419-0.935,0.935-0.935h17.868c0.516,0,0.935,0.419,0.935,0.935l0,0
								C152.283,213.439,151.864,213.858,151.348,213.858z"/>
							<path style="fill:#BAC1CC;" d="M155.521,218.78H133.48c-0.516,0-0.935-0.419-0.935-0.935l0,0
								c0-0.516,0.419-0.935,0.935-0.935h22.041c0.517,0,0.935,0.419,0.935,0.935l0,0
								C156.456,218.361,156.038,218.78,155.521,218.78z"/>
							<path style="fill:#BAC1CC;" d="M155.521,223.345H133.48c-0.516,0-0.935-0.419-0.935-0.935l0,0
								c0-0.517,0.419-0.935,0.935-0.935h22.041c0.517,0,0.935,0.419,0.935,0.935l0,0
								C156.456,222.927,156.038,223.345,155.521,223.345z"/>
							<path style="fill:#BAC1CC;" d="M155.521,227.64H133.48c-0.516,0-0.935-0.419-0.935-0.935l0,0
								c0-0.516,0.419-0.935,0.935-0.935h22.041c0.517,0,0.935,0.419,0.935,0.935l0,0
								C156.456,227.221,156.038,227.64,155.521,227.64z"/>
						</g>
					</g>
					<path style="fill:#FEB19E;" d="M127.327,210.853c0,0,6.842-0.736,7.039,1.134c0.197,1.87-4.135,2.363-4.135,2.363
						s6.3,0.342,6.497,1.746s-6.497,2.684-6.497,2.684s5.365-0.039,5.488,1.328c0.123,1.367-5.39,2.302-5.39,2.302
						s4.233,0.209,4.332,1.391c0.098,1.181-6.891,3.347-8.269,1.969c-1.378-1.378,0.492-3.94-1.083-5.465
						c-1.575-1.525-1.575-3.986-0.689-5.069C125.506,214.153,122.554,210.893,127.327,210.853z"/>
				</g>
				<g>
					<g>
						<path style="fill:#593131;" d="M166.027,332.889l-18.408-6.28l2.154-6.314c0.825-2.418,3.462-3.714,5.881-2.889l9.639,3.289
							c2.418,0.825,3.714,3.462,2.889,5.88L166.027,332.889z M150.722,325.085l13.782,4.702l1.365-4
							c0.39-1.142-0.223-2.389-1.365-2.778l-9.639-3.289c-1.142-0.39-2.389,0.223-2.778,1.365L150.722,325.085z"/>
						<path style="fill:#593131;" d="M162.978,370.423l-38.922-13.28c-3.743-1.277-5.743-5.347-4.466-9.091l8.342-24.449
							l52.479,17.905l-8.342,24.449C170.791,369.701,166.721,371.7,162.978,370.423z"/>
						<path style="fill:#754343;" d="M176.912,345.155l-24.992-2.959c-0.879-0.104-1.727-0.393-2.487-0.848l-21.588-12.934
							c-1.092-0.654-1.578-1.982-1.167-3.186l2.074-6.079c0.481-1.411,2.015-2.164,3.425-1.683l47.997,16.376
							c1.411,0.481,2.164,2.015,1.683,3.426l-2.074,6.079C179.372,344.551,178.175,345.305,176.912,345.155z"/>
					</g>
					<path style="fill:#FEB19E;" d="M168.975,310.534c0,0,3.44,9.472,1.52,10.875c-1.92,1.403-5.464-3.839-6.571-1.846
						s2.51,5.759-2.436,6.054c-4.947,0.295-9.377-3.47-8.86-8.712c0.517-5.242,4.747-8.504,4.736-10.085l1.023-3.279l11.37,3.839
						L168.975,310.534z"/>
					
						<linearGradient id="SVGID_00000111162401627683668800000006247266994939936941_" gradientUnits="userSpaceOnUse" x1="192.1521" y1="282.6007" x2="173.2508" y2="260.5492">
						<stop  offset="0" style="stop-color:#3855E1"/>
						<stop  offset="1" style="stop-color:#5C7EF7"/>
					</linearGradient>
					<path style="fill:url(#SVGID_00000111162401627683668800000006247266994939936941_);" d="M156.456,306.529l13.739,4.395
						l2.894-6.06l0.047-0.106l13.644-28.506l14.4-3.532l6.178-1.512l1.004-0.248l7.336-1.796l6.013-1.477l-7.584-25.021
						c0,0-2.575,0.402-6.592,1.488c-1.429,0.39-3.048,0.862-4.796,1.441c-0.449,0.153-0.922,0.307-1.394,0.472
						c-0.969,0.331-1.973,0.709-3.012,1.111c-7.643,2.953-16.74,7.655-24.123,14.908c-10.998,10.821-15.286,27.903-16.869,37.425
						c-0.024,0.13-0.047,0.26-0.059,0.39C156.622,303.942,156.456,306.529,156.456,306.529z"/>
					<path style="opacity:0.47;fill:#3150BC;" d="M202.741,245.596c-0.449,0.153-0.922,0.307-1.394,0.472
						c1.347,10.573,4.371,19.09,7.017,24.891l7.336-1.796l6.013-1.477l-7.584-25.021c0,0-2.575,0.402-6.592,1.488
						C206.108,244.545,204.489,245.017,202.741,245.596z"/>
					<path style="fill:#9EB2EF;" d="M157.283,299.902c-0.661,4.04-0.827,6.627-0.827,6.627l13.739,4.395l2.894-6.06l0.047-0.106
						C165.659,303.529,160.237,301.343,157.283,299.902z"/>
				</g>
				<g>
					<g>
						<path style="fill:#23406D;" d="M382.228,215.999l-12.579,2.612c-1.278,0.265-2.528-0.555-2.794-1.833l-5.615-27.037
							c-0.265-1.278,0.555-2.528,1.833-2.794l12.579-2.612c1.278-0.265,2.528,0.555,2.794,1.833l5.615,27.037
							C384.326,214.483,383.505,215.734,382.228,215.999z"/>
						<path style="fill:#A8AFBA;" d="M381.221,210.332l-12.904,2.68l-4.598-22.142c-0.184-0.887,0.385-1.755,1.272-1.939
							l9.693-2.013c0.887-0.184,1.755,0.385,1.939,1.272L381.221,210.332z"/>
					</g>
					<path style="fill:#FEB19E;" d="M356.038,214.666l3.175-1.102c0,0,2.641,1.388,6.858-0.564l-2.559-12.323
						c0,0,4.413-3.067,4.34-4.913c-0.074-1.846-8.712-1.403-12.182,7.014l-3.839,1.624L356.038,214.666z"/>
					
						<linearGradient id="SVGID_00000145763762132787319550000008777713241803411347_" gradientUnits="userSpaceOnUse" x1="319.156" y1="238.5242" x2="316.3995" y2="214.5038">
						<stop  offset="0" style="stop-color:#3855E1"/>
						<stop  offset="1" style="stop-color:#5C7EF7"/>
					</linearGradient>
					<path style="fill:url(#SVGID_00000145763762132787319550000008777713241803411347_);" d="M356.98,218.402
						c0,0-1.677,1.146-4.69,2.894c-9.864,5.741-34.034,17.992-60.508,17.838c-0.839,0-1.677-0.024-2.516-0.059
						c-0.945-0.036-1.89-0.083-2.835-0.154c-2.54-0.189-5.08-0.496-7.643-0.933l-3.32-25.469l8.789,0.425l2.41,0.118l1.429,0.071
						l23.296,1.146l35.192-11.199l5.033-1.607C351.617,201.473,357.914,205.88,356.98,218.402z"/>
					<path style="opacity:0.47;fill:#3150BC;" d="M289.266,239.075c-0.945-0.036-1.89-0.083-2.835-0.154
						c-2.54-0.189-5.08-0.496-7.643-0.933l-3.32-25.469l8.789,0.425l2.41,0.118c0.65,2.54,1.217,5.269,1.666,8.234
						C289.302,227.616,289.538,233.57,289.266,239.075z"/>
					<path style="fill:#9EB2EF;" d="M351.617,201.473l-5.033,1.607c2.386,4.477,5.352,11.305,5.706,18.216
						c3.012-1.748,4.69-2.894,4.69-2.894C357.914,205.88,351.617,201.473,351.617,201.473z"/>
				</g>
				<g>
					<g>
						<path style="fill:#A1A7AF;" d="M337.078,316.642L337.078,316.642c0.331,0.776-0.03,1.673-0.806,2.003l-16.073,6.852
							l-1.197-2.809l16.073-6.852C335.851,315.505,336.748,315.866,337.078,316.642z"/>
						<path style="fill:#BAC1CC;" d="M300.041,332.424c2.39,5.607,8.869,8.213,14.466,5.828c5.597-2.386,8.203-8.865,5.812-14.472
							c-2.386-5.597-8.865-8.203-14.461-5.817C300.261,320.348,297.655,326.827,300.041,332.424z M318.33,324.627
							c1.923,4.51-0.177,9.707-4.676,11.625c-4.499,1.918-9.702-0.166-11.625-4.676c-1.918-4.499,0.177-9.707,4.676-11.625
							C311.205,318.034,316.412,320.128,318.33,324.627z"/>
					</g>
					<path style="fill:#FEB19E;" d="M320.844,308.857l1.103,3.32c0,0,0.285,3.637,0.126,5.456c-0.16,1.819-1.506,4.892,0.268,5.329
						c1.774,0.438,1.394,4.315,5.226,3.441c3.832-0.874,9.635-4.37,9.493-7.485c-0.143-3.115-4.714-8.744-4.714-8.744l-0.668-2.951
						L320.844,308.857z"/>
					
						<linearGradient id="SVGID_00000109718530686491927620000016332870001320462751_" gradientUnits="userSpaceOnUse" x1="298.3795" y1="281.9272" x2="315.5702" y2="262.0504">
						<stop  offset="0" style="stop-color:#3855E1"/>
						<stop  offset="1" style="stop-color:#5C7EF7"/>
					</linearGradient>
					<path style="fill:url(#SVGID_00000109718530686491927620000016332870001320462751_);" d="M333.555,306.529l-13.739,4.395
						l-2.894-6.06l-0.047-0.106l-13.644-28.506l-14.4-3.532l-6.178-1.512l-1.004-0.248l-7.336-1.796l-6.013-1.477l7.584-25.021
						c0,0,2.575,0.402,6.592,1.488c1.429,0.39,3.048,0.862,4.796,1.441c0.449,0.153,0.921,0.307,1.394,0.472
						c0.969,0.331,1.973,0.709,3.012,1.111c7.643,2.953,16.74,7.655,24.123,14.908c10.998,10.821,15.286,27.903,16.869,37.425
						c0.024,0.13,0.047,0.26,0.059,0.39C333.389,303.942,333.555,306.529,333.555,306.529z"/>
					<path style="opacity:0.47;fill:#3150BC;" d="M287.27,245.596c0.449,0.153,0.921,0.307,1.394,0.472
						c-1.347,10.573-4.371,19.09-7.017,24.891l-7.336-1.796l-6.013-1.477l7.584-25.021c0,0,2.575,0.402,6.592,1.488
						C283.903,244.545,285.521,245.017,287.27,245.596z"/>
					<path style="fill:#9EB2EF;" d="M316.874,304.757l0.047,0.106l2.894,6.06l13.739-4.395c0,0-0.165-2.587-0.827-6.627
						C329.774,301.343,324.352,303.529,316.874,304.757z"/>
				</g>
				<g>
					<path style="fill:#F49D8C;" d="M198.253,124.779c0,0-6.075-2.666-6.577-4.895c-0.502-2.23-1.356-7.356-3.098-7.697
						c-1.742-0.341-0.735,7.924-0.735,7.924s-0.465-7.853-2.807-8.676c-2.342-0.823-0.386,9.712-0.629,9.357
						c-0.243-0.355-1.36-7.981-2.609-7.834c-1.249,0.148-1.684,7.792,0.091,11.533c1.775,3.741,2.339,7.065,2.339,7.065
						l10.992,0.725L198.253,124.779z"/>
					<path style="fill:#FEB19E;" d="M195.966,132.237c0,0,5.349-3.201,6.861-10.687c1.014-5.023-3.685-0.743-5.219,2.824
						c0,0-8.009-0.475-9.385,7.329L195.966,132.237z"/>
					
						<linearGradient id="SVGID_00000065783896177741116730000016229864958875165057_" gradientUnits="userSpaceOnUse" x1="184.1727" y1="181.6998" x2="199.9238" y2="170.674">
						<stop  offset="0" style="stop-color:#3855E1"/>
						<stop  offset="1" style="stop-color:#5C7EF7"/>
					</linearGradient>
					<path style="fill:url(#SVGID_00000065783896177741116730000016229864958875165057_);" d="M184.737,179.064
						c5.269,10.951,13.987,19.421,20.815,24.843c0.153,0.118,0.295,0.224,0.437,0.343c0.059,0.047,0.106,0.083,0.165,0.13
						c5.434,4.229,9.557,6.474,9.557,6.474l15.617-20.969l-5.162-3.426l-2.268-1.512l-1.323-0.874l-21.217-14.081l-3.178-31.565
						l-0.673-6.663l-14.424-0.532c0,0-0.756,2.646-1.536,6.911C179.811,147.64,178.051,165.147,184.737,179.064z"/>
					<path style="opacity:0.47;fill:#3150BC;" d="M215.712,210.853l15.617-20.969l-5.162-3.426l-2.268-1.512l-1.323-0.874
						c-4.513,2.528-11.494,8.187-16.421,20.307C211.589,208.609,215.712,210.853,215.712,210.853z"/>
					<path style="fill:#9EB2EF;" d="M181.545,138.137c6.414-0.593,12.378-0.212,16.632,0.293l-0.667-6.67l-14.421-0.531
						C183.088,131.229,182.322,133.878,181.545,138.137z"/>
					<g>
						<g>
							<path style="fill:#F4D242;" d="M201.956,88.375c0-4.871-3.949-8.82-8.82-8.82c-4.871,0-8.837,3.98-8.82,8.851
								c0.008,2.419,0.99,4.608,2.575,6.196c1.233,1.237,2.136,2.764,2.591,4.449l0.711,2.63h5.781l0.674-2.491
								c0.466-1.722,1.398-3.276,2.671-4.527C200.947,93.064,201.956,90.838,201.956,88.375z"/>
							<g>
								<path style="fill:#FFFFFF;" d="M191.132,90.374c-0.633,0-1.148,0.515-1.148,1.148c0,0.633,0.515,1.148,1.148,1.148
									c0.245,0,0.471-0.077,0.658-0.208v9.22h0.49v-10.16C192.28,90.889,191.765,90.374,191.132,90.374z M191.132,92.18
									c-0.363,0-0.658-0.295-0.658-0.658c0-0.363,0.295-0.658,0.658-0.658s0.658,0.295,0.658,0.658
									C191.789,91.885,191.494,92.18,191.132,92.18z"/>
								<path style="fill:#FFFFFF;" d="M194.546,91.374c-0.633,0-1.148,0.515-1.148,1.148l-0.055,9.161h0.49l0.055-8.221
									c0.186,0.131,0.413,0.208,0.658,0.208c0.633,0,1.148-0.515,1.148-1.148C195.694,91.889,195.179,91.374,194.546,91.374z
									 M194.546,93.18c-0.363,0-0.658-0.295-0.658-0.658c0-0.363,0.295-0.658,0.658-0.658c0.363,0,0.658,0.295,0.658,0.658
									C195.204,92.884,194.909,93.18,194.546,93.18z"/>
							</g>
							<path style="fill:#383838;" d="M193.1,104.994L193.1,104.994c-1.663,0-3.011-1.348-3.011-3.011v-0.703h6.022v0.703
								C196.111,103.646,194.763,104.994,193.1,104.994z"/>
							<path style="fill:#838689;" d="M196.127,102.676h-6.073c-0.128,0-0.232-0.104-0.232-0.232l0,0
								c0-0.128,0.104-0.232,0.232-0.232h6.073c0.128,0,0.232,0.104,0.232,0.232l0,0
								C196.359,102.573,196.255,102.676,196.127,102.676z"/>
							<path style="fill:#838689;" d="M196.174,103.657H190.1c-0.128,0-0.231-0.104-0.231-0.231l0,0
								c0-0.128,0.104-0.231,0.231-0.231h6.074c0.128,0,0.231,0.104,0.231,0.231l0,0
								C196.405,103.553,196.301,103.657,196.174,103.657z"/>
						</g>
						<path style="fill:#F4D242;" d="M182.431,87.985h-2.315c-0.246,0-0.445-0.199-0.445-0.445l0,0c0-0.246,0.199-0.445,0.445-0.445
							h2.315c0.246,0,0.445,0.199,0.445,0.445l0,0C182.876,87.786,182.677,87.985,182.431,87.985z"/>
						<path style="fill:#F4D242;" d="M183.14,83.843l-2.052-1.071c-0.218-0.114-0.302-0.383-0.188-0.601l0,0
							c0.114-0.218,0.383-0.302,0.601-0.189l2.052,1.071c0.218,0.114,0.302,0.383,0.189,0.601l0,0
							C183.627,83.872,183.358,83.957,183.14,83.843z"/>
						<path style="fill:#F4D242;" d="M183.289,91.182l-2.052,1.071c-0.218,0.114-0.302,0.383-0.189,0.601l0,0
							c0.114,0.218,0.383,0.302,0.601,0.189l2.052-1.071c0.218-0.114,0.302-0.383,0.189-0.601l0,0
							C183.776,91.153,183.507,91.069,183.289,91.182z"/>
						<path style="fill:#F4D242;" d="M185.638,80.411l-1.637-1.637c-0.174-0.174-0.174-0.456,0-0.63l0,0
							c0.174-0.174,0.456-0.174,0.63,0l1.637,1.637c0.174,0.174,0.174,0.456,0,0.63l0,0
							C186.094,80.585,185.812,80.585,185.638,80.411z"/>
						<path style="fill:#F4D242;" d="M188.47,78.232l-0.799-2.173c-0.085-0.231,0.033-0.487,0.264-0.571l0,0
							c0.231-0.085,0.487,0.034,0.571,0.264l0.799,2.173c0.085,0.231-0.034,0.487-0.264,0.571l0,0
							C188.81,78.581,188.554,78.463,188.47,78.232z"/>
						<path style="fill:#F4D242;" d="M203.933,87.689h2.315c0.246,0,0.445-0.199,0.445-0.445l0,0c0-0.246-0.199-0.445-0.445-0.445
							h-2.315c-0.246,0-0.445,0.199-0.445,0.445l0,0C203.488,87.489,203.687,87.689,203.933,87.689z"/>
						<path style="fill:#F4D242;" d="M203.224,83.546l2.052-1.071c0.218-0.114,0.302-0.383,0.189-0.601l0,0
							c-0.114-0.218-0.383-0.302-0.601-0.188l-2.052,1.071c-0.218,0.114-0.302,0.383-0.189,0.601l0,0
							C202.737,83.576,203.006,83.66,203.224,83.546z"/>
						<path style="fill:#F4D242;" d="M203.075,90.886l2.052,1.071c0.218,0.114,0.302,0.383,0.189,0.601l0,0
							c-0.114,0.218-0.383,0.302-0.601,0.188l-2.052-1.071c-0.218-0.114-0.302-0.383-0.189-0.601l0,0
							C202.588,90.856,202.857,90.772,203.075,90.886z"/>
						<path style="fill:#F4D242;" d="M200.726,80.114l1.637-1.637c0.174-0.174,0.174-0.456,0-0.629l0,0
							c-0.174-0.174-0.456-0.174-0.63,0l-1.637,1.637c-0.174,0.174-0.174,0.456,0,0.63l0,0
							C200.27,80.288,200.552,80.288,200.726,80.114z"/>
						<path style="fill:#F4D242;" d="M197.894,77.936l0.799-2.173c0.085-0.231-0.034-0.487-0.264-0.571l0,0
							c-0.231-0.085-0.487,0.034-0.571,0.264l-0.798,2.173c-0.085,0.231,0.033,0.487,0.264,0.571l0,0
							C197.554,78.285,197.81,78.166,197.894,77.936z"/>
						<path style="fill:#F4D242;" d="M192.692,77.25v-2.315c0-0.246,0.199-0.445,0.445-0.445l0,0c0.246,0,0.445,0.199,0.445,0.445
							v2.315c0,0.246-0.199,0.445-0.445,0.445l0,0C192.891,77.695,192.692,77.495,192.692,77.25z"/>
					</g>
				</g>
				<g>
					<path style="fill:#F49D8C;" d="M292.038,124.484c0,0,6.075-2.666,6.577-4.895c0.502-2.23,1.356-7.356,3.098-7.697
						s0.735,7.924,0.735,7.924s0.465-7.853,2.807-8.676c2.341-0.823,0.386,9.712,0.629,9.357c0.243-0.355,1.36-7.981,2.609-7.833
						c1.249,0.148,1.684,7.792-0.091,11.533c-1.775,3.741-2.339,7.065-2.339,7.065l-10.992,0.725L292.038,124.484z"/>
					<path style="fill:#FEB19E;" d="M294.325,131.942c0,0-5.349-3.201-6.861-10.687c-1.014-5.023,3.685-0.743,5.219,2.824
						c0,0,8.009-0.475,9.385,7.329L294.325,131.942z"/>
					
						<linearGradient id="SVGID_00000101798855017159178550000018358549967295563935_" gradientUnits="userSpaceOnUse" x1="305.2867" y1="179.9579" x2="289.7325" y2="170.5072">
						<stop  offset="0" style="stop-color:#3855E1"/>
						<stop  offset="1" style="stop-color:#5C7EF7"/>
					</linearGradient>
					<path style="fill:url(#SVGID_00000101798855017159178550000018358549967295563935_);" d="M305.273,179.064
						c-5.269,10.951-13.987,19.421-20.815,24.843c-0.154,0.118-0.295,0.224-0.437,0.343c-0.059,0.047-0.106,0.083-0.165,0.13
						c-5.434,4.229-9.557,6.474-9.557,6.474l-15.617-20.969l5.163-3.426l2.268-1.512l1.323-0.874l21.217-14.081l3.178-31.565
						l0.673-6.663l14.424-0.532c0,0,0.756,2.646,1.536,6.911C310.2,147.64,311.96,165.147,305.273,179.064z"/>
					<path style="opacity:0.47;fill:#3150BC;" d="M274.299,210.853l-15.617-20.969l5.163-3.426l2.268-1.512l1.323-0.874
						c4.513,2.528,11.494,8.187,16.421,20.307C278.422,208.609,274.299,210.853,274.299,210.853z"/>
					<path style="fill:#9EB2EF;" d="M292.501,131.76l-0.667,6.67c4.255-0.505,10.218-0.886,16.632-0.293
						c-0.777-4.259-1.544-6.908-1.544-6.908L292.501,131.76z"/>
					<g>
						<circle style="fill:#EFA245;" cx="294.695" cy="91.374" r="9.524"/>
						<g>
							<path style="fill:#F4D242;" d="M294.695,80.668c-5.913,0-10.706,4.793-10.706,10.705c0,5.913,4.793,10.706,10.706,10.706
								c5.912,0,10.706-4.793,10.706-10.706C305.401,85.461,300.608,80.668,294.695,80.668z M294.695,100.271
								c-0.92,0-1.808-0.14-2.643-0.401c-2.784-0.868-4.986-3.069-5.854-5.854c-0.26-0.835-0.401-1.723-0.401-2.643
								c0-0.307,0.016-0.61,0.046-0.909c0.365-3.585,2.867-6.547,6.208-7.588c0.835-0.26,1.723-0.401,2.643-0.401
								c4.906,0,8.897,3.991,8.897,8.897C303.593,96.28,299.601,100.271,294.695,100.271z"/>
							<g id="XMLID_16_">
								<path id="XMLID_17_" style="fill:#F4D242;" d="M295.412,90.7v-2.583c1.22,0.21,1.22,0.967,1.22,1.242h1.434
									c0-1.506-0.978-2.477-2.654-2.688v-1.033h-1.434v1.033c-1.675,0.21-2.654,1.181-2.654,2.688
									c0,1.506,0.978,2.478,2.654,2.688v2.583c-1.22-0.211-1.22-0.967-1.22-1.242h-1.434c0,1.506,0.978,2.478,2.654,2.688v1.033
									h1.434v-1.033c1.675-0.21,2.654-1.181,2.654-2.688C298.066,91.881,297.088,90.91,295.412,90.7z M292.759,89.359
									c0-0.275,0-1.032,1.22-1.242v2.484C292.759,90.391,292.759,89.634,292.759,89.359z M295.412,94.63v-2.484
									c1.22,0.211,1.22,0.967,1.22,1.242S296.632,94.42,295.412,94.63z"/>
							</g>
						</g>
					</g>
				</g>
			</g>
			<g>
				<g>
					<g>
						<g>
							<path style="fill:#1B3151;" d="M244.624,432.011h-22.445c0,0-6.415-79.149-4.135-148.257h28.352l4.162,59.889
								C250.558,343.642,245.214,401.591,244.624,432.011z"/>
							<path style="fill:#23406D;" d="M239.425,432.052c-2.517-35.375,4.698-108.99,4.77-109.729l1.177,0.115
								c-0.074,0.74-7.278,74.254-4.768,109.531L239.425,432.052z"/>
						</g>
						<g>
							
								<linearGradient id="SVGID_00000170974109566170742440000007888398229664916901_" gradientUnits="userSpaceOnUse" x1="227.931" y1="452.3383" x2="220.9903" y2="436.3895">
								<stop  offset="0" style="stop-color:#3855E1"/>
								<stop  offset="1" style="stop-color:#5C7EF7"/>
							</linearGradient>
							<path style="fill:url(#SVGID_00000170974109566170742440000007888398229664916901_);" d="M244.033,445.49
								c0.012,1.252-0.071,2.221-0.295,2.67c-1.087,2.162-37.708,1.666-39.87,1.571c-1.89-0.083-1.607-6.119,7.277-9.592
								c1.288-0.508,2.764-0.957,4.442-1.335c8.86-1.973,8.565-6.793,8.565-6.793l18.405,0.047
								C242.556,432.058,243.974,440.776,244.033,445.49z"/>
							<path style="fill:#9EB2EF;" d="M244.033,445.49c0.012,1.252-0.071,2.221-0.295,2.67c-1.087,2.162-37.708,1.666-39.87,1.571
								c-1.89-0.083-1.607-6.119,7.277-9.592c2.162,0.413,4.489,2.103,5.422,7.088C216.567,447.226,235.61,447.439,244.033,445.49z"
								/>
						</g>
					</g>
					<g>
						<g>
							
								<linearGradient id="SVGID_00000145041938943248697310000012741634780338939315_" gradientUnits="userSpaceOnUse" x1="262.3006" y1="440.7164" x2="286.5313" y2="440.7164">
								<stop  offset="0" style="stop-color:#3855E1"/>
								<stop  offset="1" style="stop-color:#5C7EF7"/>
							</linearGradient>
							<path style="fill:url(#SVGID_00000145041938943248697310000012741634780338939315_);" d="M285.238,448.1
								c-2.776,1.229-12.286,1.607-17.921,0.969c-1.867-0.201-3.308-0.532-3.934-0.969c-2.516-1.772,0.142-16.043,0.142-16.043
								h13.585c0,0-0.295,5.269,3.26,6.899c1.158,0.532,2.469,1.512,3.579,2.658c0.071,0.071,0.142,0.142,0.201,0.213
								c0.792,0.815,1.205,1.465,1.205,1.465C286.727,445.253,287.152,447.262,285.238,448.1z"/>
							<path style="fill:#9EB2EF;" d="M285.238,448.1c-2.776,1.229-12.286,1.607-17.921,0.969
								c-0.591-7.017,5.174-10.419,9.935-10.419c3.071,0,5.352,1.642,6.698,2.965c0.071,0.071,0.142,0.142,0.201,0.213
								c0.792,0.815,1.205,1.465,1.205,1.465C286.727,445.253,287.152,447.262,285.238,448.1z"/>
						</g>
						<g>
							<path style="fill:#23406D;" d="M240.014,286.586l19.376,145.425h20.982l-4.444-126.107c0,0,1.731-10.78,1.382-22.15
								L240.014,286.586z"/>
							<path style="fill:#38659B;" d="M275.161,432.03l-1.181-0.039c1.381-40.644-5.64-124.897-5.711-125.743
								c1.172-12.815-0.654-19.655-0.673-19.723l1.14-0.314c0.077,0.283,1.904,7.088,0.71,20.041
								C269.517,306.996,276.544,391.317,275.161,432.03z"/>
						</g>
					</g>
				</g>
				<g>
					
						<linearGradient id="SVGID_00000116221372581704593690000015096342070369550751_" gradientUnits="userSpaceOnUse" x1="209.5275" y1="245.0819" x2="197.4189" y2="239.9136">
						<stop  offset="0" style="stop-color:#3855E1"/>
						<stop  offset="1" style="stop-color:#5C7EF7"/>
					</linearGradient>
					<path style="fill:url(#SVGID_00000116221372581704593690000015096342070369550751_);" d="M212.09,251.267
						c0,0-4.235,11.813-14.867,5.611c-10.632-6.202,1.651-33.533,1.651-33.533L212.09,251.267z"/>
					<path style="fill:#FEB19E;" d="M203.425,217.525c0,0-1.034-3.47,3.987-4.504c5.021-1.034,7.162,2.141,8.491,5.168
						L203.425,217.525z"/>
				</g>
				<g>
					
						<linearGradient id="SVGID_00000157296872696698097150000010381267193400158366_" gradientUnits="userSpaceOnUse" x1="250.6532" y1="282.3758" x2="242.7776" y2="191.4129">
						<stop  offset="0" style="stop-color:#3855E1"/>
						<stop  offset="1" style="stop-color:#5C7EF7"/>
					</linearGradient>
					<path style="fill:url(#SVGID_00000157296872696698097150000010381267193400158366_);" d="M278.126,241.013
						c-3.828,9.521-3.556,11.53-3.556,11.53l2.741,31.211c0,0-44.784,15.062-59.268,0l-1.418-25.186l-0.721-12.818l-0.142-0.685
						l-5.647-27.183l5.788,0.307c-1.004-2.28-2.481-4.666-5.304-5.245c1.819-4.56,6.037-13.963,11.081-17.649
						c6.769-4.938,20.72-10.915,41.11-5.091C283.159,196.039,281.942,231.491,278.126,241.013z"/>
					<path style="fill:#3150BC;" d="M274.57,252.542c0,0-0.614,16.645-15.771,21.17c-15.157,4.524-27.265-13.585-29.829-15.039
						c-2.126-1.193-9.781-0.413-12.345-0.106l-0.721-12.818l-0.142-0.685l12.782-2.398l19.338,18.252L274.57,252.542z"/>
					<path style="fill:#A9D0FF;" d="M261.162,222.521c0,0-16.23,5.019-38.59,0v22.101c0,0,24.414,5.168,42.528,0L261.162,222.521z"
						/>
					<path style="opacity:0.47;fill:#3150BC;" d="M265.1,208.766c0,0-11.155,42.944-29.598,29.235l-5.174,5.746l25.74,15.985
						L265.1,208.766z"/>
				</g>
				<g>
					
						<linearGradient id="SVGID_00000124125354695364972340000015441885136071780491_" gradientUnits="userSpaceOnUse" x1="233.3624" y1="177.7383" x2="227.6526" y2="154.8991">
						<stop  offset="0" style="stop-color:#1F3A65"/>
						<stop  offset="1" style="stop-color:#294A7A"/>
					</linearGradient>
					<path style="fill:url(#SVGID_00000124125354695364972340000015441885136071780491_);" d="M250.407,183.626
						c0,0,5.741-8.556,3.301-18.302c-2.439-9.746-7.903-7.531-7.903-7.531s3.987-6.35-2.806-9.451s-11.566-0.591-6.763,1.181
						c0,0-9.923,0-15.682,6.202s-9.894-0.148-11.518,1.181c-1.624,1.329,1.402,5.622,3.987,6.054c0,0-6.202-1.329-6.645,0
						c-0.443,1.329,3.515,9.738,12.523,9.59c0,0-1.152,5.454,8.003,11.075C236.059,189.247,250.407,183.626,250.407,183.626z"/>
					<path style="fill:#FEB19E;" d="M253.708,191.314c0,0-0.343,1.288-1.075,3.06c-1.713,4.099-5.564,10.856-12.369,10.597
						c-2.327-0.083-3.095-2.044-3.331-4.536c-0.343-3.414,0.272-7.82-0.803-9.864l6.615-8.517l4.395-5.659l0.744-0.957
						C247.884,175.437,249.644,183.198,253.708,191.314z"/>
					<path style="fill:#FF856A;" d="M252.633,194.374c-1.713,4.099-5.564,10.856-12.369,10.597
						c-2.327-0.083-3.095-2.044-3.331-4.536c-0.343-3.414,0.272-7.82-0.803-9.864l6.615-8.517l5.044-1.748
						c0,0-0.138,10.072-8.088,16.392c0,0,4.064,1.439,9.47-4.011C250.298,191.549,251.475,192.566,252.633,194.374z"/>
					<path style="fill:#23406D;" d="M250.991,185.173l0.723,1.787c0,0-2.292,9.448-10.266,12.253l0.754,9.008
						c0,0,11.724-5.684,13.865-18.015C256.068,190.207,253.744,185.009,250.991,185.173z"/>
					<path style="fill:#23406D;" d="M238.274,198.808l-0.973,9.292c0,0-6.996-5.033-4.673-15.414c0,0,2.653,1.631,4.635,1.263
						C237.264,193.949,236.281,195.781,238.274,198.808z"/>
					<path style="fill:#FEB19E;" d="M221.686,171.822c2.092,8.896,4.563,17.439,11.925,21.446c1.897,1.032,4.172,0.977,6.01-0.156
						c3.573-2.204,9.007-7.253,8.267-17.352c0,0,2.445,0.886,2.839-3.938c0.394-4.824-1.264-5.66-3.052-5.267
						c-1.788,0.394-1.624,6.842-1.624,6.842s-6.301-1.354-7.703-9.771c0,0-2.658,3.766-4.947,4.725
						c-2.289,0.96-1.403-3.323-1.403-3.323S230.349,171.157,221.686,171.822z"/>
				</g>
				<g>
					<g>
						<path style="fill:#BAC1CC;" d="M224.03,251.502l-19.149,1.359c-1.546,0.11-2.887-1.055-2.997-2.6l-2.132-30.044
							c-0.11-1.546,1.054-2.887,2.6-2.997l19.148-1.359c1.546-0.11,2.888,1.055,2.997,2.6l2.132,30.044
							C226.74,250.05,225.576,251.392,224.03,251.502z"/>
						<path style="fill:#E1E7F4;" d="M222.928,251.502l-19.149,1.359c-1.546,0.11-2.887-1.055-2.997-2.6l-2.132-30.044
							c-0.11-1.546,1.054-2.887,2.6-2.997l19.148-1.359c1.546-0.11,2.888,1.055,2.997,2.6l2.132,30.044
							C225.638,250.05,224.474,251.392,222.928,251.502z"/>
						<path style="fill:#F8FBFF;" d="M213.811,234.317c0.149,2.098-0.896,3.881-2.333,3.983c-1.437,0.102-2.723-1.516-2.872-3.614
							c-0.149-2.098,0.896-3.881,2.333-3.983C212.376,230.601,213.662,232.219,213.811,234.317z"/>
					</g>
					<path style="fill:#FEB19E;" d="M232.192,236.608c0,0-1.225-7.722-6.974-8.013v3.105c0,0-3.755,0.886-6.044-1.698
						c-2.289-2.584-4.725-4.548-4.135,2.599c0.591,7.147,5.611,10.617,11.001,10.248l2.067,1.772l5.907-5.995L232.192,236.608z"/>
					
						<linearGradient id="SVGID_00000002346382978466670550000008610036806175784576_" gradientUnits="userSpaceOnUse" x1="256.9967" y1="281.8263" x2="249.1212" y2="190.8637">
						<stop  offset="0" style="stop-color:#3855E1"/>
						<stop  offset="1" style="stop-color:#5C7EF7"/>
					</linearGradient>
					<path style="fill:url(#SVGID_00000002346382978466670550000008610036806175784576_);" d="M261.363,268.396
						c-13.845,5.34-26.415-9.604-32.156-17.992c-2.103-3.06-3.284-5.245-3.284-5.245l8.458-8.068l4.737,3.851l14.589,11.896
						c0,0,2.528-11.612,4.702-25.198c2.162-13.585,5.718-22.162,13.184-21.063C286.36,208.739,280.265,261.107,261.363,268.396z"/>
					<path style="fill:#9EB2EF;" d="M239.119,240.942c-1.465,2.327-4.465,6.131-9.911,9.462c-2.103-3.06-3.284-5.245-3.284-5.245
						l8.458-8.068L239.119,240.942z"/>
				</g>
			</g>
		</g>
	</g>
</g>
</svg>
