<?xml version="1.0" standalone="no"?>
<svg xmlns:xlink="http://www.w3.org/1999/xlink" id="wave" style="transform:rotate(0deg); transition: 0.3s" viewBox="0 0 1440 490" version="1.1" xmlns="http://www.w3.org/2000/svg"><defs><linearGradient id="sw-gradient-0" x1="0" x2="0" y1="1" y2="0"><stop stop-color="rgba(2, 62, 138, 0.2)" offset="0%"/><stop stop-color="rgba(37, 99, 235, 0.2)" offset="100%"/></linearGradient></defs><path style="transform:translate(0, 0px); opacity:1" fill="url(#sw-gradient-0)" d="M0,343L60,302.2C120,261,240,180,360,147C480,114,600,131,720,114.3C840,98,960,49,1080,73.5C1200,98,1320,196,1440,269.5C1560,343,1680,392,1800,416.5C1920,441,2040,441,2160,408.3C2280,376,2400,310,2520,277.7C2640,245,2760,245,2880,269.5C3000,294,3120,343,3240,375.7C3360,408,3480,425,3600,367.5C3720,310,3840,180,3960,171.5C4080,163,4200,278,4320,285.8C4440,294,4560,196,4680,155.2C4800,114,4920,131,5040,138.8C5160,147,5280,147,5400,122.5C5520,98,5640,49,5760,32.7C5880,16,6000,33,6120,40.8C6240,49,6360,49,6480,40.8C6600,33,6720,16,6840,40.8C6960,65,7080,131,7200,130.7C7320,131,7440,65,7560,81.7C7680,98,7800,196,7920,204.2C8040,212,8160,131,8280,81.7C8400,33,8520,16,8580,8.2L8640,0L8640,490L8580,490C8520,490,8400,490,8280,490C8160,490,8040,490,7920,490C7800,490,7680,490,7560,490C7440,490,7320,490,7200,490C7080,490,6960,490,6840,490C6720,490,6600,490,6480,490C6360,490,6240,490,6120,490C6000,490,5880,490,5760,490C5640,490,5520,490,5400,490C5280,490,5160,490,5040,490C4920,490,4800,490,4680,490C4560,490,4440,490,4320,490C4200,490,4080,490,3960,490C3840,490,3720,490,3600,490C3480,490,3360,490,3240,490C3120,490,3000,490,2880,490C2760,490,2640,490,2520,490C2400,490,2280,490,2160,490C2040,490,1920,490,1800,490C1680,490,1560,490,1440,490C1320,490,1200,490,1080,490C960,490,840,490,720,490C600,490,480,490,360,490C240,490,120,490,60,490L0,490Z"/></svg>